<?xml version="1.0" encoding="UTF-8"?>
<svg id="Layer_2" data-name="Layer 2" xmlns="http://www.w3.org/2000/svg" viewBox="0 0 2914.81 450.04">
  <defs>
    <style>
      .cls-1 {
        fill: #fff;
      }

      .cls-2 {
        fill: #ff6a00;
      }
    </style>
  </defs>
  <g id="Layer_1-2" data-name="Layer 1">
    <g>
      <g>
        <path class="cls-2" d="m275.27,189.2l-173.95,83.14,173.95,83.14v94.56l-233.63-111.65c-55.52-26.54-55.52-105.57,0-132.11l233.63-111.68v94.6Z"/>
        <path class="cls-2" d="m275.27,94.6l173.95,83.14-173.95,83.14v94.56l233.63-111.65c55.52-26.54,55.52-105.57,0-132.11L275.27,0v94.6Z"/>
      </g>
      <path class="cls-1" d="m766.75,82.36c45.78,0,82.77,13.08,110.98,39.24,28.21,26.16,42.31,60.77,42.31,103.83s-14.1,77.53-42.31,103.42c-28.21,25.89-65.2,38.83-110.98,38.83h-96.88V82.36h96.88Zm-39.24,241.58h39.24c29.97,0,53.27-8.85,69.9-26.57,16.62-17.71,24.94-41.69,24.94-71.94s-8.32-54.23-24.94-71.95c-16.63-17.71-39.93-26.57-69.9-26.57h-39.24v197.03Z"/>
      <path class="cls-1" d="m970.72,338.66c-22.07-21.52-33.11-49.73-33.11-84.61s11.17-62.95,33.52-84.21c22.34-21.26,50.08-31.88,83.18-31.88s60.84,10.63,83.19,31.88c22.34,21.25,33.52,49.33,33.52,84.21s-11.24,63.09-33.72,84.61c-22.48,21.53-50.35,32.29-83.59,32.29s-60.91-10.76-82.98-32.29Zm82.98-16.35c16.08,0,29.9-5.93,41.49-17.78,11.58-11.85,17.37-28.61,17.37-50.28s-5.72-38.36-17.17-50.08c-11.45-11.71-25.28-17.58-41.49-17.58s-29.91,5.86-41.08,17.58c-11.18,11.72-16.76,28.48-16.76,50.28s5.58,38.57,16.76,50.28c11.17,11.72,24.8,17.58,40.88,17.58Z"/>
      <path class="cls-1" d="m1219.66,339.07c-20.71-21.26-31.07-49.46-31.07-84.62s10.35-63.36,31.07-84.61c20.71-21.26,47.55-31.88,80.53-31.88,27.52,0,50.55,6.68,69.08,20.03,18.53,13.35,30.93,32.29,37.2,56.82h-62.13c-7.36-18.8-22.07-28.21-44.15-28.21-16.63,0-29.64,6.07-39.04,18.19-9.4,12.13-14.1,28.68-14.1,49.67s4.7,37.54,14.1,49.67c9.4,12.13,22.41,18.19,39.04,18.19,21.8,0,36.52-9.54,44.15-28.62h62.13c-6.54,23.71-19.15,42.51-37.81,56.41-18.67,13.9-41.49,20.85-68.47,20.85-32.97,0-59.82-10.63-80.53-31.88Z"/>
      <g>
        <path class="cls-1" d="m1623.27,119.43c16.26,8.94,28.99,21.78,37.85,38.17h30.36c-11.2-23.18-27.58-41.16-48.73-53.46-22.06-12.84-47.64-19.35-76.04-19.35-39.6,0-73.44,13.49-100.57,40.09-27.13,26.6-40.88,60.84-40.88,101.77s13.75,75.11,40.88,101.56c27.14,26.47,60.97,39.9,100.58,39.9,28.39,0,53.97-6.51,76.04-19.35,21.15-12.3,37.53-30.28,48.73-53.46h-30.36c-8.85,16.39-21.58,29.3-37.84,38.37-16.57,9.26-35.6,13.95-56.57,13.95-33.39,0-61.38-11.2-83.19-33.31-21.81-22.09-32.87-51.58-32.87-87.67s11.06-65.58,32.88-87.67c21.82-22.1,49.81-33.3,83.19-33.3,20.96,0,39.99,4.62,56.56,13.74Z"/>
        <path class="cls-1" d="m1846.71,142.43c-33.39,0-57.69,13.27-72.22,39.43l-3.78,6.81v-121.45h-24.58v298.45h24.58v-125.52c0-24.93,6.16-44.23,18.32-57.37,12.2-13.18,29.06-19.86,50.13-19.86s37.92,6.68,50.13,19.86c12.16,13.14,18.32,32.44,18.32,57.37v125.52h24.17v-130.83c0-29.81-8.18-52.91-24.33-68.66-16.16-15.76-36.59-23.75-60.72-23.75Z"/>
        <path class="cls-1" d="m2126.44,156.82c-14.87-9.55-32.38-14.39-52.05-14.39-30.63,0-56.21,10.32-76.01,30.66-19.83,20.36-29.88,47.66-29.88,81.16s10.13,61.45,30.12,83.04c19.95,21.54,45.44,32.46,75.78,32.46,19.67,0,37.18-4.91,52.04-14.59,14.87-9.69,26.04-22.27,33.2-37.4l3.84-8.11v56.01h24.58v-219.15h-24.58v55.6l-3.84-8.11c-7.16-15.11-18.33-27.62-33.19-37.18Zm37.04,99.27c0,27.66-8.37,50.35-24.89,67.42-16.54,17.09-36.69,25.76-59.9,25.76s-43.4-8.95-59.93-26.6c-16.5-17.61-24.87-40.62-24.87-68.42s8.31-50.23,24.71-66.63c16.4-16.4,36.54-24.71,59.88-24.71s43.57,8.66,60.11,25.76c16.51,17.07,24.89,39.76,24.89,67.42Z"/>
        <rect class="cls-1" x="2241.14" y="146.51" width="24.58" height="219.15"/>
        <path class="cls-1" d="m2254.04,62.31c-5.35,0-9.76,1.81-13.49,5.54-3.73,3.73-5.54,8.14-5.54,13.49s1.81,9.76,5.54,13.49c3.73,3.73,8.14,5.54,13.49,5.54s9.68-1.8,13.27-5.52c3.6-3.73,5.36-8.16,5.36-13.52s-1.75-9.78-5.36-13.52c-3.59-3.71-7.93-5.51-13.26-5.51Z"/>
        <path class="cls-1" d="m2419.38,142.43c-33.39,0-57.69,13.27-72.22,39.43l-3.78,6.81v-42.15h-24.58v219.15h24.58v-125.52c0-24.93,6.16-44.23,18.32-57.37,12.2-13.18,29.06-19.86,50.13-19.86s37.92,6.68,50.13,19.86c12.16,13.14,18.32,32.44,18.32,57.37v125.52h24.17v-130.83c0-29.81-8.18-52.91-24.33-68.66-16.16-15.76-36.59-23.75-60.72-23.75Z"/>
        <path class="cls-2" d="m2567.35,329.64c-4.94,0-9.09,1.75-12.67,5.34-3.59,3.59-5.34,7.73-5.34,12.67s1.75,9.09,5.34,12.67c3.59,3.59,7.73,5.34,12.67,5.34s9.09-1.75,12.68-5.34c3.59-3.59,5.33-7.73,5.33-12.67s-1.75-9.08-5.33-12.67c-3.6-3.59-7.74-5.34-12.68-5.34Z"/>
        <path class="cls-1" d="m2645.21,62.31c-5.35,0-9.76,1.81-13.49,5.54-3.73,3.73-5.54,8.14-5.54,13.49s1.81,9.76,5.54,13.49c3.73,3.73,8.14,5.54,13.49,5.54s9.68-1.8,13.27-5.52c3.6-3.73,5.36-8.16,5.36-13.52s-1.75-9.78-5.36-13.52c-3.59-3.71-7.93-5.51-13.26-5.51Z"/>
        <rect class="cls-1" x="2632.31" y="146.51" width="24.58" height="219.15"/>
        <path class="cls-1" d="m2883.52,173.92c-20.77-20.9-47.1-31.49-78.28-31.49s-57.51,10.59-78.28,31.49c-20.77,20.91-31.3,48.62-31.3,82.37s9.92,61.44,29.49,82.21c19.54,20.74,45.31,31.25,76.61,31.25s58.3-10.68,80.15-31.73c21.83-21.03,32.9-48.67,32.9-82.14s-10.53-61.06-31.3-81.97Zm-20.45,151.46c-17.21,16.93-37.9,25.51-61.51,25.51s-43.28-8.48-58.32-25.19c-14.99-16.66-22.59-40.08-22.59-69.62s8.03-52.99,23.85-69.66c15.86-16.69,35.88-25.15,59.51-25.15s43.9,8.53,60.31,25.34c16.38,16.8,24.69,40.11,24.69,69.27s-8.73,52.56-25.94,69.5Z"/>
      </g>
    </g>
  </g>
</svg>